<?xml version="1.0" standalone="no"?>
<!DOCTYPE svg PUBLIC "-//W3C//DTD SVG 20010904//EN"
 "http://www.w3.org/TR/2001/REC-SVG-20010904/DTD/svg10.dtd">
<svg version="1.0" xmlns="http://www.w3.org/2000/svg"
 width="122.000000pt" height="162.000000pt" viewBox="0 0 122.000000 162.000000"
 preserveAspectRatio="xMidYMid meet">
<metadata>
Created by potrace 1.10, written by Peter Selinger 2001-2011
</metadata>
<g transform="translate(0.000000,162.000000) scale(0.100000,-0.100000)"
fill="#000000" stroke="none">
<path d="M651 1183 l-134 -136 -45 24 c-25 13 -50 29 -57 36 -15 14 -66 46
-115 70 -19 10 -38 22 -41 26 -4 5 -15 7 -25 5 -27 -5 -19 -61 26 -195 l17
-52 -31 1 c-48 1 -160 -22 -168 -35 -12 -19 -10 -23 25 -59 65 -66 111 -129
99 -137 -19 -12 -182 -165 -182 -171 0 -3 15 -12 34 -18 32 -12 64 -19 195
-41 52 -10 61 -22 61 -82 0 -26 5 -70 10 -100 6 -29 11 -70 12 -91 1 -31 5
-38 22 -38 12 0 37 15 56 33 34 33 110 100 164 145 15 12 31 20 36 17 12 -7
117 -36 146 -40 12 -2 31 -8 42 -14 11 -6 42 -12 69 -14 l48 -2 -3 49 c-2 28
-9 73 -17 100 -12 50 -12 51 12 64 14 8 37 16 52 18 14 3 30 9 36 15 5 5 16 9
25 9 33 0 70 25 70 48 0 12 -6 22 -13 22 -7 0 -27 13 -44 29 -17 15 -47 38
-67 50 -20 13 -36 26 -36 31 0 6 33 39 146 148 17 17 18 52 2 53 -7 1 -65 4
-128 8 l-115 6 -3 28 c-5 40 -36 32 -40 -10 -5 -51 23 -63 145 -63 62 0 103
-4 103 -10 0 -5 -5 -10 -11 -10 -6 0 -40 -28 -75 -62 -82 -78 -84 -99 -14
-146 27 -19 60 -44 74 -57 l24 -23 -82 -26 c-110 -35 -118 -42 -107 -86 15
-54 32 -143 28 -146 -1 -1 -34 6 -72 17 -39 11 -79 22 -90 24 -11 2 -48 11
-81 19 l-62 16 -55 -53 c-94 -90 -146 -137 -151 -137 -3 0 -6 21 -6 48 0 43
-26 222 -32 227 -7 4 -95 28 -113 30 -11 1 -35 5 -53 9 -19 5 -45 9 -58 11
-14 1 -26 4 -29 6 -2 3 36 38 86 79 49 41 89 78 89 81 0 4 -8 21 -18 38 -11
21 -25 31 -41 31 -17 0 -22 4 -17 16 4 9 -6 30 -24 52 -16 20 -30 39 -30 43 0
3 37 9 81 12 112 7 114 10 83 127 -14 52 -29 97 -35 98 -15 6 -10 32 6 32 8 0
15 -6 15 -14 0 -7 16 -21 35 -30 19 -9 37 -21 40 -26 3 -5 31 -23 63 -41 31
-18 59 -36 62 -41 4 -4 20 -10 37 -14 27 -5 35 0 74 41 110 119 190 197 195
192 3 -3 10 -50 15 -104 4 -54 8 -99 9 -101 0 -2 4 -1 9 2 5 4 12 0 15 -6 3
-7 4 12 1 42 -2 30 -7 97 -11 148 -4 58 -11 92 -18 92 -6 -1 -71 -62 -145
-137z"/>
<path d="M687 863 c-4 -3 -7 -12 -7 -20 0 -20 -43 -83 -57 -83 -17 0 -26 -18
-16 -32 4 -7 6 -23 4 -35 -2 -17 3 -23 18 -23 13 0 18 5 15 13 -2 7 6 29 19
48 12 19 26 42 30 52 10 25 52 21 75 -8 33 -42 45 -36 48 23 2 39 -1 52 -12
52 -8 0 -14 -7 -14 -15 0 -8 -4 -15 -8 -15 -17 0 -72 32 -72 41 0 10 -14 12
-23 2z"/>
<path d="M403 763 c-10 -26 -54 -58 -75 -55 -12 2 -18 -3 -18 -17 0 -12 4 -21
9 -21 5 0 5 -15 -1 -34 -12 -39 -6 -66 15 -66 9 0 17 16 21 42 7 43 48 98 72
98 7 0 35 -18 63 -40 28 -22 55 -40 61 -40 18 0 11 25 -12 45 -15 12 -18 20
-10 23 13 4 16 34 5 45 -3 4 -15 0 -25 -10 -17 -15 -19 -15 -39 3 -12 10 -24
18 -28 17 -3 -2 -6 2 -6 9 0 19 -25 21 -32 1z"/>
</g>
</svg>
